#!OML:ASF H:\MichaelJackson\Top Level 1\Subject 1\Session 1\male.ASF
:FULLY-SPECIFIED
:DEGREES
192
root 24.69 16.3564 9.83809 -137.229 80.77 -142.364
lowerback -0.780094 -1.39673 3.37207
upperback 0.963874 -1.9111 1.06408
thorax 1.35192 -0.919955 -0.832917
lowerneck -8.70885 -9.32014 -1.912
upperneck 10.3046 -12.8715 5.03176
head 4.9748 -6.05896 0.940081
rclavicle -1.71949e-014 1.35174e-014
rhumerus -63.0492 50.1191 -103.705
rradius 43.7302
rwrist 1.20892
rhand 7.89552 -11.3733
rfingers 7.12502
rthumb 33.1277 -38.3464
lclavicle -1.71949e-014 1.35174e-014
lhumerus -45.809 -9.46933 93.6153
lradius 55.6542
lwrist 18.1142
lhand -12.1501 7.59413
lfingers 7.12502
lthumb 13.9123 37.1087
rfemur -26.1806 10.7352 -0.208982
rtibia 41.8104
rfoot 4.39808 3.05747
rtoes -30.8543
lfemur -23.9829 11.7249 -11.9677
ltibia 52.3817
lfoot -28.8229 4.15871
ltoes -2.68566
193
root 24.7268 16.3112 9.99657 -140.212 79.4889 -145.393
lowerback -1.03882 -1.71976 3.25209
upperback 0.818787 -2.34864 1.30087
thorax 1.34578 -1.14156 -0.536508
lowerneck -8.89351 -9.09043 -1.8253
upperneck 10.3831 -12.5629 4.91944
head 5.00605 -5.90606 0.907694
rclavicle 3.72721e-014 -2.78299e-014
rhumerus -61.4802 51.143 -102.07
rradius 42.9981
rwrist 4.82285
rhand 7.33182 -10.0686
rfingers 7.12502
rthumb 32.5915 -37.1541
lclavicle 3.72721e-014 -2.78299e-014
lhumerus -46.0604 -8.86441 93.4609
lradius 55.3071
lwrist 18.3228
lhand -14.231 7.30457
lfingers 7.12502
lthumb 11.9064 36.946
rfemur -25.0614 10.1556 0.693332
rtibia 41.8621
rfoot 1.03225 2.29279
rtoes -31.0083
lfemur -24.6768 12.304 -11.3198
ltibia 53.1976
lfoot -28.9085 5.11299
ltoes -3.32253
194
root 24.7575 16.2667 10.1545 -142.413 78.1392 -147.607
lowerback -1.1664 -2.00108 3.16384
upperback 0.702672 -2.72474 1.54796
thorax 1.30197 -1.33175 -0.243783
lowerneck -9.07739 -8.86288 -1.72498
upperneck 10.3993 -12.2586 4.82903
head 5.0193 -5.75527 0.881224
rclavicle 1.23743e-014 3.57812e-015
rhumerus -59.6197 51.8628 -100.165
rradius 42.4116
rwrist 8.35156
rhand 6.63514 -9.34369
rfingers 7.12502
rthumb 31.9283 -36.564
lclavicle 1.23743e-014 3.57812e-015
lhumerus -46.1602 -8.44278 93.3711
lradius 54.8574
lwrist 18.3443
lhand -16.2758 7.04365
lfingers 7.12502
lthumb 9.93407 36.7893
rfemur -23.8965 9.37497 1.76606
rtibia 41.8263
rfoot -2.30619 1.40954
rtoes -30.4941
lfemur -25.4159 12.8439 -10.6004
ltibia 54.0027
lfoot -28.9502 5.86018
ltoes -3.94051
195
root 24.7822 16.2237 10.3103 -144.124 76.75 -149.299
lowerback -1.16874 -2.23316 3.11953
upperback 0.614217 -3.03 1.77797
thorax 1.21906 -1.48587 0.0123906
lowerneck -9.28305 -8.63259 -1.58958
upperneck 10.3914 -11.9558 4.74998
head 5.02802 -5.60342 0.852515
rclavicle -7.70291e-015 3.18055e-015
rhumerus -57.4746 52.2012 -98.0313
rradius 42.0612
rwrist 11.3266
rhand 6.52224 -9.54259
rfingers 7.12502
rthumb 31.8208 -36.7843
lclavicle -7.70291e-015 3.18055e-015
lhumerus -46.1137 -8.20266 93.3191
lradius 54.3405
lwrist 18.1746
lhand -18.1239 6.86459
lfingers 7.12502
lthumb 8.15079 36.6874
rfemur -22.7085 8.36853 2.96458
rtibia 41.6761
rfoot -5.51214 0.468245
rtoes -29.6057
lfemur -26.1759 13.3234 -9.83676
ltibia 54.7672
lfoot -28.9545 6.39335
ltoes -4.56489
196
root 24.8012 16.1835 10.4642 -145.447 75.3431 -150.603
lowerback -1.08261 -2.40887 3.1321
upperback 0.543307 -3.25655 1.97301
thorax 1.10372 -1.60009 0.206612
lowerneck -9.51605 -8.39255 -1.42822
upperneck 10.3814 -11.6472 4.69787
head 5.04134 -5.44539 0.827422
rclavicle 1.56543e-014 -1.59028e-015
rhumerus -55.127 52.1414 -95.7774
rradius 41.9824
rwrist 13.4657
rhand 7.38799 -10.6259
rfingers 7.12502
rthumb 32.6449 -37.7003
lclavicle 1.56543e-014 -1.59028e-015
lhumerus -45.9296 -8.11068 93.2506
lradius 53.7847
lwrist 17.768
lhand -19.5163 6.69946
lfingers 7.12502
lthumb 6.8068 36.57
rfemur -21.5639 7.12169 4.25457
rtibia 41.3994
rfoot -8.45844 -0.502305
rtoes -28.3755
lfemur -26.9701 13.738 -9.03357
ltibia 55.4634
lfoot -28.9282 6.67641
ltoes -5.20682
197
root 24.8148 16.1466 10.6157 -146.511 73.9456 -151.673
lowerback -0.937351 -2.52973 3.191
upperback 0.479831 -3.40725 2.12548
thorax 0.960252 -1.67617 0.336243
lowerneck -9.77992 -8.13333 -1.24465
upperneck 10.3828 -11.3182 4.65413
head 5.06272 -5.27511 0.801751
rclavicle 5.04416e-014 -3.57812e-015
rhumerus -52.6919 51.6856 -93.5203
rradius 42.1006
rwrist 14.9165
rhand 9.06423 -12.2298
rfingers 7.12502
rthumb 34.2383 -38.9604
lclavicle 5.04416e-014 -3.57812e-015
lhumerus -45.6328 -8.12349 93.1576
lradius 53.2398
lwrist 17.1861
lhand -20.4494 6.62118
lfingers 7.12502
lthumb 5.90597 36.5189
rfemur -20.5179 5.65043 5.58078
rtibia 40.998
rfoot -11.0562 -1.49315
rtoes -27.0314
lfemur -27.8027 14.0689 -8.21634
ltibia 56.0692
lfoot -28.8757 6.70517
ltoes -5.87699
